<?xml version="1.0" standalone="no"?>
<!DOCTYPE svg PUBLIC "-//W3C//DTD SVG 20010904//EN"
 "http://www.w3.org/TR/2001/REC-SVG-20010904/DTD/svg10.dtd">
<svg version="1.0" xmlns="http://www.w3.org/2000/svg"
 width="192.000000pt" height="192.000000pt" viewBox="0 0 192.000000 192.000000"
 preserveAspectRatio="xMidYMid meet">
<metadata>
Created by potrace 1.11, written by Peter Selinger 2001-2013
</metadata>
<g transform="translate(0.000000,192.000000) scale(0.100000,-0.100000)"
fill="#000000" stroke="none">
<path d="M778 1863 c7 -3 16 -2 19 1 4 3 -2 6 -13 5 -11 0 -14 -3 -6 -6z"/>
<path d="M508 1794 c-39 -17 -47 -31 -53 -90 -2 -20 -8 -41 -14 -47 -6 -6 -11
-18 -11 -26 0 -9 -15 -28 -34 -43 -25 -20 -40 -45 -56 -93 -15 -45 -27 -65
-38 -65 -14 -1 -12 -4 6 -20 21 -17 22 -23 14 -62 l-10 -43 -1 43 c-1 46 -3
47 -32 32 -14 -8 -19 -21 -19 -54 0 -35 5 -48 29 -69 l29 -26 16 22 c15 20 15
20 1 -10 -8 -18 -15 -50 -15 -72 0 -23 -5 -41 -12 -44 -7 -2 -4 -3 7 -1 10 2
34 -8 51 -21 30 -23 32 -28 23 -57 -9 -34 -35 -66 -44 -56 -4 3 -1 15 6 26 10
17 10 23 0 36 -15 18 -41 21 -41 5 0 -5 4 -8 9 -4 18 10 22 -15 7 -37 -10 -14
-16 -17 -16 -8 0 10 -3 11 -11 3 -9 -9 -17 -43 -18 -86 -1 -26 -31 -34 -47
-12 -17 23 -18 12 -2 -32 11 -29 10 -35 -13 -59 -13 -14 -45 -42 -72 -61 -58
-43 -72 -65 -57 -93 9 -17 7 -22 -15 -30 -26 -10 -33 -23 -55 -97 -12 -38 -11
-45 9 -78 27 -46 26 -51 -4 -59 l-25 -6 0 -200 0 -200 931 0 931 0 -37 51
c-20 28 -34 53 -31 57 8 8 -15 33 -24 27 -5 -3 -12 0 -16 6 -5 8 -3 9 7 4 12
-8 12 -6 0 9 -8 9 -20 15 -28 12 -8 -3 -12 -2 -8 3 6 10 -92 78 -107 73 -4 -1
-8 2 -8 6 0 11 35 109 59 165 12 27 21 54 21 61 0 7 -40 32 -90 55 -49 23 -90
45 -90 49 0 4 14 27 31 52 l30 45 -25 18 -25 18 25 24 c27 27 32 50 9 42 -21
-9 -27 8 -9 24 13 11 15 25 9 73 -9 79 -15 89 -76 115 -59 26 -99 22 -99 -9 0
-11 -6 -20 -13 -20 -31 0 -113 34 -129 54 -15 19 -19 20 -40 7 -22 -14 -83
-16 -119 -6 -23 7 -60 80 -60 118 0 97 12 189 27 213 15 22 19 23 26 10 5 -9
6 -21 3 -26 -3 -6 1 -10 10 -10 40 0 73 -30 90 -80 9 -28 21 -48 26 -44 5 3 9
10 9 15 0 6 -6 7 -12 3 -9 -5 -9 -2 1 9 36 45 131 -12 131 -78 0 -19 19 -20
26 0 4 8 12 15 19 15 7 0 16 6 19 13 3 6 3 -10 0 -37 -4 -36 -1 -57 12 -82 10
-19 22 -34 26 -34 18 0 68 86 77 133 26 135 34 244 21 291 -14 50 -62 112
-106 138 l-29 16 -1 -31 c0 -18 -4 -48 -8 -67 -4 -19 -7 -41 -8 -48 -1 -8 -7
-10 -17 -5 -9 4 -72 8 -141 8 -129 0 -161 9 -168 45 -1 9 4 7 15 -7 12 -14 31
-22 53 -23 59 -3 67 -1 40 13 -16 9 -27 10 -32 3 -6 -9 -98 64 -141 112 -18
19 -17 20 38 55 l55 34 -37 7 c-21 3 -50 6 -65 6 -15 0 -33 7 -42 15 -8 8 -24
15 -35 15 -10 0 -43 5 -71 12 -41 9 -53 9 -59 -1 -5 -7 -50 -22 -101 -33 -107
-23 -110 -21 -110 55 0 52 0 52 -52 31z m334 -549 c-4 -33 -3 -35 27 -35 18 0
41 -9 53 -20 12 -11 30 -20 40 -20 15 0 17 -3 8 -19 -5 -11 -10 -29 -10 -40 0
-24 -9 -26 -35 -7 -13 9 -16 20 -12 37 5 21 2 20 -27 -12 -18 -20 -35 -41 -37
-48 -3 -9 -14 -10 -39 -4 -28 7 -36 15 -40 39 -7 40 -43 55 -139 57 -43 1 -77
5 -74 10 2 4 19 7 38 7 53 0 134 22 129 35 -7 17 30 46 68 54 47 11 54 5 50
-34z m68 5 c0 -5 -5 -10 -11 -10 -5 0 -7 5 -4 10 3 6 8 10 11 10 2 0 4 -4 4
-10z m-399 -172 c-13 -38 -11 -178 2 -178 5 0 6 7 3 16 -4 10 7 5 27 -12 19
-16 33 -32 31 -35 -2 -3 7 -4 19 -2 48 8 50 -9 8 -93 -67 -136 -77 -208 -39
-276 28 -48 72 -77 138 -87 53 -8 70 3 21 14 -22 5 -31 14 -36 36 -7 29 -24
40 -26 17 -1 -7 -5 9 -10 36 -4 27 -13 52 -19 56 -9 5 -9 9 -1 14 6 4 11 2 11
-4 0 -6 5 -8 10 -5 6 3 10 2 10 -3 0 -5 8 -12 18 -16 9 -3 37 -19 62 -34 49
-31 132 -51 128 -31 -2 6 5 13 15 14 9 2 17 -2 17 -8 0 -7 5 -4 11 5 9 16 12
16 44 1 21 -10 35 -24 35 -35 0 -10 5 -18 11 -18 5 0 8 3 5 8 -8 14 19 39 56
51 29 10 42 10 60 -1 13 -7 26 -11 31 -10 17 5 5 -26 -14 -34 -19 -9 -17 -10
14 -11 39 -1 63 18 53 42 -8 23 31 19 44 -4 14 -27 12 -71 -4 -103 -14 -26
-13 -27 16 -33 16 -4 35 -2 40 3 6 6 14 70 18 144 9 136 19 228 27 228 2 0 24
-5 48 -11 40 -10 45 -15 51 -46 22 -120 -67 -427 -138 -477 -37 -26 -111 -17
-158 20 -8 6 -42 26 -74 43 l-59 32 -64 -16 c-35 -9 -80 -22 -101 -29 -45 -15
-148 -14 -164 2 -7 7 -21 12 -31 12 -20 0 -76 41 -90 67 -7 11 -2 10 19 -3 27
-18 27 -18 -7 27 -19 26 -39 55 -46 65 -10 17 -11 17 -9 -6 1 -14 6 -32 11
-39 20 -33 -17 3 -43 42 -45 66 -66 176 -64 345 1 106 5 122 44 237 23 69 44
123 46 120 2 -2 -1 -19 -7 -37z m425 -263 c5 -12 9 -12 30 2 33 21 107 12 218
-28 77 -29 86 -34 80 -53 -3 -12 -10 -25 -15 -31 -11 -11 -123 -8 -214 5 -147
22 -259 41 -262 44 -2 2 8 18 23 36 27 32 27 32 39 10 10 -19 13 -20 18 -6 4
9 13 16 22 16 8 0 15 5 15 10 0 16 40 12 46 -5z"/>
<path d="M1451 1695 c24 -25 44 -45 46 -45 2 0 3 20 3 45 l0 45 -46 0 -46 0
43 -45z"/>
<path d="M1222 1223 c0 -5 -2 -16 -7 -26 -5 -13 -1 -25 14 -40 15 -15 21 -17
19 -7 -2 10 3 14 15 12 23 -4 23 30 -1 51 -19 17 -43 23 -40 10z m48 -41 c0
-12 -3 -13 -12 -4 -6 6 -13 19 -14 27 -2 13 1 14 12 4 8 -6 14 -19 14 -27z"/>
</g>
</svg>
